<?xml version="1.0" encoding="UTF-8"?><svg xmlns="http://www.w3.org/2000/svg" xmlns:xlink="http://www.w3.org/1999/xlink" fill-opacity="1" color-rendering="auto" color-interpolation="auto" text-rendering="auto" stroke="black" stroke-linecap="square" width="510" stroke-miterlimit="10" shape-rendering="auto" stroke-opacity="1" fill="black" stroke-dasharray="none" font-weight="normal" stroke-width="1" height="725" font-family="'Dialog'" font-style="normal" stroke-linejoin="miter" font-size="12px" stroke-dashoffset="0" image-rendering="auto">
  <!--Generated by ySVG 2.5-->
  <defs id="genericDefs"/>
  <g>
    <defs id="defs1">
      <clipPath clipPathUnits="userSpaceOnUse" id="clipPath1">
        <path d="M0 0 L510 0 L510 725 L0 725 L0 0 Z"/>
      </clipPath>
      <clipPath clipPathUnits="userSpaceOnUse" id="clipPath2">
        <path d="M-312 -42 L198 -42 L198 683 L-312 683 L-312 -42 Z"/>
      </clipPath>
      <clipPath clipPathUnits="userSpaceOnUse" id="clipPath3">
        <path d="M-296 13 L-296 41 L-150 41 L-150 13 Z"/>
      </clipPath>
      <clipPath clipPathUnits="userSpaceOnUse" id="clipPath4">
        <path d="M-296 127 L-296 155 L-150 155 L-150 127 Z"/>
      </clipPath>
      <clipPath clipPathUnits="userSpaceOnUse" id="clipPath5">
        <path d="M-296 58 L-296 86 L-150 86 L-150 58 Z"/>
      </clipPath>
      <clipPath clipPathUnits="userSpaceOnUse" id="clipPath6">
        <path d="M36 160 L36 188 L182 188 L182 160 Z"/>
      </clipPath>
      <clipPath clipPathUnits="userSpaceOnUse" id="clipPath7">
        <path d="M-296 362 L-296 390 L-150 390 L-150 362 Z"/>
      </clipPath>
      <clipPath clipPathUnits="userSpaceOnUse" id="clipPath8">
        <path d="M-296 271 L-296 299 L-150 299 L-150 271 Z"/>
      </clipPath>
      <clipPath clipPathUnits="userSpaceOnUse" id="clipPath9">
        <path d="M36 303 L36 331 L182 331 L182 303 Z"/>
      </clipPath>
      <clipPath clipPathUnits="userSpaceOnUse" id="clipPath10">
        <path d="M36 394 L36 422 L182 422 L182 394 Z"/>
      </clipPath>
      <clipPath clipPathUnits="userSpaceOnUse" id="clipPath11">
        <path d="M-296 501 L-296 529 L-150 529 L-150 501 Z"/>
      </clipPath>
      <clipPath clipPathUnits="userSpaceOnUse" id="clipPath12">
        <path d="M36 533 L36 561 L182 561 L182 533 Z"/>
      </clipPath>
      <clipPath clipPathUnits="userSpaceOnUse" id="clipPath13">
        <path d="M36 624 L36 652 L182 652 L182 624 Z"/>
      </clipPath>
      <clipPath clipPathUnits="userSpaceOnUse" id="clipPath14">
        <path d="M36 501 L36 529 L182 529 L182 501 Z"/>
      </clipPath>
      <clipPath clipPathUnits="userSpaceOnUse" id="clipPath15">
        <path d="M-255 590 L-255 618 L-155 618 L-155 590 Z"/>
      </clipPath>
    </defs>
    <g text-rendering="geometricPrecision" shape-rendering="geometricPrecision" transform="matrix(1,0,0,1,312,42)">
      <path d="M-131.24 -26.76 L-131.24 207.6215 L15 207.6215 L15 -26.76 ZM-130.24 -4.76 L-130.24 206.6215 L14 206.6215 L14 -4.76 Z" fill-rule="evenodd" clip-path="url(#clipPath2)" stroke="none"/>
    </g>
    <g stroke-linecap="butt" transform="matrix(1,0,0,1,312,42)" fill="white" text-rendering="geometricPrecision" font-family="sans-serif" shape-rendering="geometricPrecision" stroke="white" stroke-miterlimit="1.45">
      <text x="-129.24" xml:space="preserve" y="-12.6955" clip-path="url(#clipPath2)" stroke="none">build-styles</text>
    </g>
    <g fill="aqua" text-rendering="geometricPrecision" shape-rendering="geometricPrecision" transform="matrix(1,0,0,1,312,42)" stroke="aqua">
      <rect x="-113" width="112" height="61" y="13" clip-path="url(#clipPath2)" stroke="none"/>
    </g>
    <g fill="aqua" text-rendering="geometricPrecision" shape-rendering="geometricPrecision" transform="matrix(1,0,0,1,312,42)" stroke="aqua">
      <rect x="-113" width="1" height="61" y="13" clip-path="url(#clipPath2)" stroke="none"/>
      <rect x="-112" width="110" height="1" y="13" clip-path="url(#clipPath2)" stroke="none"/>
      <rect x="-112" y="73" clip-path="url(#clipPath2)" fill="rgb(0,178,178)" width="111" height="1" stroke="none"/>
      <rect x="-2" y="13" clip-path="url(#clipPath2)" fill="rgb(0,178,178)" width="1" height="60" stroke="none"/>
    </g>
    <g text-rendering="geometricPrecision" stroke-miterlimit="1.45" shape-rendering="geometricPrecision" font-family="sans-serif" transform="matrix(1,0,0,1,312,42)" stroke-linecap="butt">
      <text x="-99.7002" xml:space="preserve" y="48.2139" clip-path="url(#clipPath2)" stroke="none">build-foundation</text>
    </g>
    <g fill="rgb(255,204,0)" text-rendering="geometricPrecision" shape-rendering="geometricPrecision" transform="matrix(1,0,0,1,312,42)" stroke="rgb(255,204,0)">
      <rect x="-295" width="144" height="26" y="14" clip-path="url(#clipPath2)" stroke="none"/>
      <rect x="-296" y="13" clip-path="url(#clipPath2)" fill="yellow" width="1" height="28" stroke="none"/>
      <rect x="-295" y="13" clip-path="url(#clipPath2)" fill="yellow" width="144" height="1" stroke="none"/>
      <rect x="-295" y="40" clip-path="url(#clipPath2)" fill="rgb(178,142,0)" width="145" height="1" stroke="none"/>
      <rect x="-151" y="13" clip-path="url(#clipPath2)" fill="rgb(178,142,0)" width="1" height="27" stroke="none"/>
    </g>
    <g font-size="13px" stroke-linecap="butt" transform="matrix(1,0,0,1,312,42)" text-rendering="geometricPrecision" font-family="sans-serif" shape-rendering="geometricPrecision" font-weight="bold" stroke-miterlimit="1.45">
      <text x="-284.6777" xml:space="preserve" y="31.0698" clip-path="url(#clipPath3)" stroke="none">my-foundation.scss</text>
    </g>
    <g fill="rgb(255,204,0)" text-rendering="geometricPrecision" shape-rendering="geometricPrecision" transform="matrix(1,0,0,1,312,42)" stroke="rgb(255,204,0)">
      <rect x="-295" width="144" height="26" y="128" clip-path="url(#clipPath2)" stroke="none"/>
      <rect x="-296" y="127" clip-path="url(#clipPath2)" fill="yellow" width="1" height="28" stroke="none"/>
      <rect x="-295" y="127" clip-path="url(#clipPath2)" fill="yellow" width="144" height="1" stroke="none"/>
      <rect x="-295" y="154" clip-path="url(#clipPath2)" fill="rgb(178,142,0)" width="145" height="1" stroke="none"/>
      <rect x="-151" y="127" clip-path="url(#clipPath2)" fill="rgb(178,142,0)" width="1" height="27" stroke="none"/>
    </g>
    <g font-size="13px" stroke-linecap="butt" transform="matrix(1,0,0,1,312,42)" text-rendering="geometricPrecision" font-family="sans-serif" shape-rendering="geometricPrecision" font-weight="bold" stroke-miterlimit="1.45">
      <text x="-257.9763" xml:space="preserve" y="145.3806" clip-path="url(#clipPath4)" stroke="none">styles.scss</text>
    </g>
    <g fill="aqua" text-rendering="geometricPrecision" shape-rendering="geometricPrecision" transform="matrix(1,0,0,1,312,42)" stroke="aqua">
      <rect x="-113" width="112" height="61" y="127.3107" clip-path="url(#clipPath2)" stroke="none"/>
      <rect x="-113" width="1" height="61" y="127.3107" clip-path="url(#clipPath2)" stroke="none"/>
      <rect x="-112" width="110" height="1" y="127.3107" clip-path="url(#clipPath2)" stroke="none"/>
      <rect x="-112" y="187.3107" clip-path="url(#clipPath2)" fill="rgb(0,178,178)" width="111" height="1" stroke="none"/>
      <rect x="-2" y="127.3107" clip-path="url(#clipPath2)" fill="rgb(0,178,178)" width="1" height="60" stroke="none"/>
    </g>
    <g text-rendering="geometricPrecision" stroke-miterlimit="1.45" shape-rendering="geometricPrecision" font-family="sans-serif" transform="matrix(1,0,0,1,312,42)" stroke-linecap="butt">
      <text x="-80.6748" xml:space="preserve" y="162.5246" clip-path="url(#clipPath2)" stroke="none">build-css</text>
    </g>
    <g fill="rgb(204,153,255)" text-rendering="geometricPrecision" shape-rendering="geometricPrecision" transform="matrix(1,0,0,1,312,42)" stroke="rgb(204,153,255)">
      <rect x="-295" width="144" height="26" y="59" clip-path="url(#clipPath2)" stroke="none"/>
      <rect x="-296" y="58" clip-path="url(#clipPath2)" fill="rgb(255,218,255)" width="1" height="28" stroke="none"/>
      <rect x="-295" y="58" clip-path="url(#clipPath2)" fill="rgb(255,218,255)" width="144" height="1" stroke="none"/>
      <rect x="-295" y="85" clip-path="url(#clipPath2)" fill="rgb(142,107,178)" width="145" height="1" stroke="none"/>
      <rect x="-151" y="58" clip-path="url(#clipPath2)" fill="rgb(142,107,178)" width="1" height="27" stroke="none"/>
    </g>
    <g font-size="13px" stroke-linecap="butt" transform="matrix(1,0,0,1,312,42)" text-rendering="geometricPrecision" font-family="sans-serif" shape-rendering="geometricPrecision" font-weight="bold" stroke-miterlimit="1.45">
      <text x="-281.0627" xml:space="preserve" y="76.6948" clip-path="url(#clipPath5)" stroke="none">my-foundation.css</text>
    </g>
    <g fill="rgb(204,153,255)" text-rendering="geometricPrecision" shape-rendering="geometricPrecision" transform="matrix(1,0,0,1,312,42)" stroke="rgb(204,153,255)">
      <rect x="37" width="144" height="26" y="161" clip-path="url(#clipPath2)" stroke="none"/>
      <rect x="36" y="160" clip-path="url(#clipPath2)" fill="rgb(255,218,255)" width="1" height="28" stroke="none"/>
      <rect x="37" y="160" clip-path="url(#clipPath2)" fill="rgb(255,218,255)" width="144" height="1" stroke="none"/>
      <rect x="37" y="187" clip-path="url(#clipPath2)" fill="rgb(142,107,178)" width="145" height="1" stroke="none"/>
      <rect x="181" y="160" clip-path="url(#clipPath2)" fill="rgb(142,107,178)" width="1" height="27" stroke="none"/>
    </g>
    <g font-size="13px" stroke-linecap="butt" transform="matrix(1,0,0,1,312,42)" text-rendering="geometricPrecision" font-family="sans-serif" shape-rendering="geometricPrecision" font-weight="bold" stroke-miterlimit="1.45">
      <text x="78.1987" xml:space="preserve" y="178.3806" clip-path="url(#clipPath6)" stroke="none">styles.css</text>
      <path fill="none" d="M-150.1671 34.255 L-120.9613 37.1531" clip-path="url(#clipPath2)"/>
      <path d="M-113.0004 37.9431 L-124.448 31.7826 L-121.9564 37.0544 L-125.4354 41.7337 Z" stroke="none" clip-path="url(#clipPath2)"/>
      <path fill="none" d="M-150.1671 148.5658 L-120.9613 151.4639" clip-path="url(#clipPath2)"/>
      <path d="M-113.0004 152.2538 L-124.448 146.0933 L-121.9564 151.3651 L-125.4354 156.0445 Z" stroke="none" clip-path="url(#clipPath2)"/>
    </g>
    <g text-rendering="geometricPrecision" stroke-miterlimit="1.45" stroke-dasharray="6,2" shape-rendering="geometricPrecision" transform="matrix(1,0,0,1,312,42)" stroke-linecap="butt">
      <path fill="none" d="M-57 74.0033 L-57 112.3242" clip-path="url(#clipPath2)"/>
      <path fill="white" d="M-57 127.3242 L-51 111.3242 L-63 111.3242 Z" clip-path="url(#clipPath2)" stroke="none"/>
      <path fill="none" stroke-dasharray="none" d="M-57 127.3242 L-51 111.3242 L-63 111.3242 Z" clip-path="url(#clipPath2)"/>
      <path fill="none" stroke-dasharray="none" d="M-112.9815 53.3055 L-142.2895 58.439" clip-path="url(#clipPath2)"/>
      <path stroke-dasharray="none" d="M-150.1695 59.8192 L-137.4868 62.6739 L-141.3045 58.2665 L-139.2121 52.8239 Z" clip-path="url(#clipPath2)" stroke="none"/>
      <path fill="none" d="M-223.28 86.6103 L-223.28 112.2884" clip-path="url(#clipPath2)"/>
      <path fill="white" d="M-223.28 127.2884 L-217.28 111.2884 L-229.28 111.2884 Z" clip-path="url(#clipPath2)" stroke="none"/>
      <path fill="none" stroke-dasharray="none" d="M-223.28 127.2884 L-217.28 111.2884 L-229.28 111.2884 Z" clip-path="url(#clipPath2)"/>
      <path fill="none" stroke-dasharray="none" d="M-1.0185 163.3658 L28.2086 166.266" clip-path="url(#clipPath2)"/>
      <path stroke-dasharray="none" d="M36.1695 167.056 L24.7219 160.8955 L27.2135 166.1673 L23.7344 170.8466 Z" clip-path="url(#clipPath2)" stroke="none"/>
    </g>
    <g text-rendering="geometricPrecision" shape-rendering="geometricPrecision" transform="matrix(1,0,0,1,312,42)">
      <path d="M-131.74 237.6215 L-131.74 437.3227 L15 437.3227 L15 237.6215 ZM-130.74 259.6215 L-130.74 436.3227 L14 436.3227 L14 259.6215 Z" fill-rule="evenodd" clip-path="url(#clipPath2)" stroke="none"/>
    </g>
    <g stroke-linecap="butt" transform="matrix(1,0,0,1,312,42)" fill="white" text-rendering="geometricPrecision" font-family="sans-serif" shape-rendering="geometricPrecision" stroke="white" stroke-miterlimit="1.45">
      <text x="-129.74" xml:space="preserve" y="251.686" clip-path="url(#clipPath2)" stroke="none">tmp-ressources</text>
    </g>
    <g fill="aqua" text-rendering="geometricPrecision" shape-rendering="geometricPrecision" transform="matrix(1,0,0,1,312,42)" stroke="aqua">
      <rect x="-113.5" width="112" height="61" y="271.3227" clip-path="url(#clipPath2)" stroke="none"/>
      <rect x="-113.5" width="1" height="61" y="271.3227" clip-path="url(#clipPath2)" stroke="none"/>
      <rect x="-112.5" width="110" height="1" y="271.3227" clip-path="url(#clipPath2)" stroke="none"/>
      <rect x="-112.5" y="331.3227" clip-path="url(#clipPath2)" fill="rgb(0,178,178)" width="111" height="1" stroke="none"/>
      <rect x="-2.5" y="271.3227" clip-path="url(#clipPath2)" fill="rgb(0,178,178)" width="1" height="60" stroke="none"/>
    </g>
    <g text-rendering="geometricPrecision" stroke-miterlimit="1.45" shape-rendering="geometricPrecision" font-family="sans-serif" transform="matrix(1,0,0,1,312,42)" stroke-linecap="butt">
      <text x="-79.168" xml:space="preserve" y="306.5365" clip-path="url(#clipPath2)" stroke="none">tmp-img</text>
    </g>
    <g fill="aqua" text-rendering="geometricPrecision" shape-rendering="geometricPrecision" transform="matrix(1,0,0,1,312,42)" stroke="aqua">
      <rect x="-113.5" width="112" height="61" y="361.3227" clip-path="url(#clipPath2)" stroke="none"/>
      <rect x="-113.5" width="1" height="61" y="361.3227" clip-path="url(#clipPath2)" stroke="none"/>
      <rect x="-112.5" width="110" height="1" y="361.3227" clip-path="url(#clipPath2)" stroke="none"/>
      <rect x="-112.5" y="421.3227" clip-path="url(#clipPath2)" fill="rgb(0,178,178)" width="111" height="1" stroke="none"/>
      <rect x="-2.5" y="361.3227" clip-path="url(#clipPath2)" fill="rgb(0,178,178)" width="1" height="60" stroke="none"/>
    </g>
    <g text-rendering="geometricPrecision" stroke-miterlimit="1.45" shape-rendering="geometricPrecision" font-family="sans-serif" transform="matrix(1,0,0,1,312,42)" stroke-linecap="butt">
      <text x="-78.8369" xml:space="preserve" y="396.5365" clip-path="url(#clipPath2)" stroke="none">tmp-svg</text>
    </g>
    <g fill="rgb(255,204,0)" text-rendering="geometricPrecision" shape-rendering="geometricPrecision" transform="matrix(1,0,0,1,312,42)" stroke="rgb(255,204,0)">
      <rect x="-295" width="144" height="26" y="363" clip-path="url(#clipPath2)" stroke="none"/>
      <rect x="-296" y="362" clip-path="url(#clipPath2)" fill="yellow" width="1" height="28" stroke="none"/>
      <rect x="-295" y="362" clip-path="url(#clipPath2)" fill="yellow" width="144" height="1" stroke="none"/>
      <rect x="-295" y="389" clip-path="url(#clipPath2)" fill="rgb(178,142,0)" width="145" height="1" stroke="none"/>
      <rect x="-151" y="362" clip-path="url(#clipPath2)" fill="rgb(178,142,0)" width="1" height="27" stroke="none"/>
    </g>
    <g font-size="13px" stroke-linecap="butt" transform="matrix(1,0,0,1,312,42)" text-rendering="geometricPrecision" font-family="sans-serif" shape-rendering="geometricPrecision" font-weight="bold" stroke-miterlimit="1.45">
      <text x="-271.3413" xml:space="preserve" y="380.3925" clip-path="url(#clipPath7)" stroke="none">_assets/svg/**/*</text>
    </g>
    <g fill="rgb(255,204,0)" text-rendering="geometricPrecision" shape-rendering="geometricPrecision" transform="matrix(1,0,0,1,312,42)" stroke="rgb(255,204,0)">
      <rect x="-295" width="144" height="26" y="272" clip-path="url(#clipPath2)" stroke="none"/>
      <rect x="-296" y="271" clip-path="url(#clipPath2)" fill="yellow" width="1" height="28" stroke="none"/>
      <rect x="-295" y="271" clip-path="url(#clipPath2)" fill="yellow" width="144" height="1" stroke="none"/>
      <rect x="-295" y="298" clip-path="url(#clipPath2)" fill="rgb(178,142,0)" width="145" height="1" stroke="none"/>
      <rect x="-151" y="271" clip-path="url(#clipPath2)" fill="rgb(178,142,0)" width="1" height="27" stroke="none"/>
    </g>
    <g font-size="13px" stroke-linecap="butt" transform="matrix(1,0,0,1,312,42)" text-rendering="geometricPrecision" font-family="sans-serif" shape-rendering="geometricPrecision" font-weight="bold" stroke-miterlimit="1.45">
      <text x="-271.6967" xml:space="preserve" y="289.3925" clip-path="url(#clipPath8)" stroke="none">_assets/img/**/*</text>
    </g>
    <g fill="rgb(204,153,255)" text-rendering="geometricPrecision" shape-rendering="geometricPrecision" transform="matrix(1,0,0,1,312,42)" stroke="rgb(204,153,255)">
      <rect x="37" width="144" height="26" y="304" clip-path="url(#clipPath2)" stroke="none"/>
      <rect x="36" y="303" clip-path="url(#clipPath2)" fill="rgb(255,218,255)" width="1" height="28" stroke="none"/>
      <rect x="37" y="303" clip-path="url(#clipPath2)" fill="rgb(255,218,255)" width="144" height="1" stroke="none"/>
      <rect x="37" y="330" clip-path="url(#clipPath2)" fill="rgb(142,107,178)" width="145" height="1" stroke="none"/>
      <rect x="181" y="303" clip-path="url(#clipPath2)" fill="rgb(142,107,178)" width="1" height="27" stroke="none"/>
    </g>
    <g font-size="13px" stroke-linecap="butt" transform="matrix(1,0,0,1,312,42)" text-rendering="geometricPrecision" font-family="sans-serif" shape-rendering="geometricPrecision" font-weight="bold" stroke-miterlimit="1.45">
      <text x="60.8633" xml:space="preserve" y="321.3925" clip-path="url(#clipPath9)" stroke="none">_assets/img/**/*</text>
    </g>
    <g fill="rgb(204,153,255)" text-rendering="geometricPrecision" shape-rendering="geometricPrecision" transform="matrix(1,0,0,1,312,42)" stroke="rgb(204,153,255)">
      <rect x="37" width="144" height="26" y="395" clip-path="url(#clipPath2)" stroke="none"/>
      <rect x="36" y="394" clip-path="url(#clipPath2)" fill="rgb(255,218,255)" width="1" height="28" stroke="none"/>
      <rect x="37" y="394" clip-path="url(#clipPath2)" fill="rgb(255,218,255)" width="144" height="1" stroke="none"/>
      <rect x="37" y="421" clip-path="url(#clipPath2)" fill="rgb(142,107,178)" width="145" height="1" stroke="none"/>
      <rect x="181" y="394" clip-path="url(#clipPath2)" fill="rgb(142,107,178)" width="1" height="27" stroke="none"/>
    </g>
    <g font-size="13px" stroke-linecap="butt" transform="matrix(1,0,0,1,312,42)" text-rendering="geometricPrecision" font-family="sans-serif" shape-rendering="geometricPrecision" font-weight="bold" stroke-miterlimit="1.45">
      <text x="61.2187" xml:space="preserve" y="412.3925" clip-path="url(#clipPath10)" stroke="none">_assets/svg/**/*</text>
      <path fill="none" d="M-150.1441 383.1607 L-121.4227 385.8461" clip-path="url(#clipPath2)"/>
      <path d="M-113.4574 386.5908 L-124.9399 380.4954 L-122.4183 385.753 L-125.8708 390.452 Z" stroke="none" clip-path="url(#clipPath2)"/>
      <path fill="none" d="M-150.1441 292.6018 L-121.4181 295.4609" clip-path="url(#clipPath2)"/>
      <path d="M-113.4574 296.2533 L-124.9032 290.0894 L-122.4132 295.3619 L-125.8936 300.0402 Z" stroke="none" clip-path="url(#clipPath2)"/>
      <path fill="none" d="M-1.5131 307.0259 L28.2006 309.7874" clip-path="url(#clipPath2)"/>
      <path d="M36.1663 310.5277 L24.6805 304.4387 L27.2049 309.6949 L23.7551 314.3958 Z" stroke="none" clip-path="url(#clipPath2)"/>
      <path fill="none" d="M-1.5131 397.3616 L28.2052 400.3017" clip-path="url(#clipPath2)"/>
      <path d="M36.1663 401.0893 L24.7169 394.9322 L27.21 400.2033 L23.7324 404.8836 Z" stroke="none" clip-path="url(#clipPath2)"/>
    </g>
    <g text-rendering="geometricPrecision" shape-rendering="geometricPrecision" transform="matrix(1,0,0,1,312,42)">
      <path d="M-131.74 467.3227 L-131.74 667.0239 L15 667.0239 L15 467.3227 ZM-130.74 489.3227 L-130.74 666.0239 L14 666.0239 L14 489.3227 Z" fill-rule="evenodd" clip-path="url(#clipPath2)" stroke="none"/>
    </g>
    <g stroke-linecap="butt" transform="matrix(1,0,0,1,312,42)" fill="white" text-rendering="geometricPrecision" font-family="sans-serif" shape-rendering="geometricPrecision" stroke="white" stroke-miterlimit="1.45">
      <text x="-129.74" xml:space="preserve" y="481.3871" clip-path="url(#clipPath2)" stroke="none">build-html</text>
    </g>
    <g fill="aqua" text-rendering="geometricPrecision" shape-rendering="geometricPrecision" transform="matrix(1,0,0,1,312,42)" stroke="aqua">
      <rect x="-113.5" width="112" height="61" y="501.0238" clip-path="url(#clipPath2)" stroke="none"/>
      <rect x="-113.5" width="1" height="61" y="501.0238" clip-path="url(#clipPath2)" stroke="none"/>
      <rect x="-112.5" width="110" height="1" y="501.0238" clip-path="url(#clipPath2)" stroke="none"/>
      <rect x="-112.5" y="561.0238" clip-path="url(#clipPath2)" fill="rgb(0,178,178)" width="111" height="1" stroke="none"/>
      <rect x="-2.5" y="501.0238" clip-path="url(#clipPath2)" fill="rgb(0,178,178)" width="1" height="60" stroke="none"/>
    </g>
    <g text-rendering="geometricPrecision" stroke-miterlimit="1.45" shape-rendering="geometricPrecision" font-family="sans-serif" transform="matrix(1,0,0,1,312,42)" stroke-linecap="butt">
      <text x="-76.5078" xml:space="preserve" y="536.2377" clip-path="url(#clipPath2)" stroke="none">build-js</text>
    </g>
    <g fill="aqua" text-rendering="geometricPrecision" shape-rendering="geometricPrecision" transform="matrix(1,0,0,1,312,42)" stroke="aqua">
      <rect x="-113.5" width="112" height="61" y="591.0238" clip-path="url(#clipPath2)" stroke="none"/>
      <rect x="-113.5" width="1" height="61" y="591.0238" clip-path="url(#clipPath2)" stroke="none"/>
      <rect x="-112.5" width="110" height="1" y="591.0238" clip-path="url(#clipPath2)" stroke="none"/>
      <rect x="-112.5" y="651.0238" clip-path="url(#clipPath2)" fill="rgb(0,178,178)" width="111" height="1" stroke="none"/>
      <rect x="-2.5" y="591.0238" clip-path="url(#clipPath2)" fill="rgb(0,178,178)" width="1" height="60" stroke="none"/>
    </g>
    <g text-rendering="geometricPrecision" stroke-miterlimit="1.45" shape-rendering="geometricPrecision" font-family="sans-serif" transform="matrix(1,0,0,1,312,42)" stroke-linecap="butt">
      <text x="-83.5068" xml:space="preserve" y="626.2377" clip-path="url(#clipPath2)" stroke="none">inserthtml</text>
    </g>
    <g fill="rgb(255,204,0)" text-rendering="geometricPrecision" shape-rendering="geometricPrecision" transform="matrix(1,0,0,1,312,42)" stroke="rgb(255,204,0)">
      <rect x="-295" width="144" height="26" y="502" clip-path="url(#clipPath2)" stroke="none"/>
      <rect x="-296" y="501" clip-path="url(#clipPath2)" fill="yellow" width="1" height="28" stroke="none"/>
      <rect x="-295" y="501" clip-path="url(#clipPath2)" fill="yellow" width="144" height="1" stroke="none"/>
      <rect x="-295" y="528" clip-path="url(#clipPath2)" fill="rgb(178,142,0)" width="145" height="1" stroke="none"/>
      <rect x="-151" y="501" clip-path="url(#clipPath2)" fill="rgb(178,142,0)" width="1" height="27" stroke="none"/>
    </g>
    <g font-size="13px" stroke-linecap="butt" transform="matrix(1,0,0,1,312,42)" text-rendering="geometricPrecision" font-family="sans-serif" shape-rendering="geometricPrecision" font-weight="bold" stroke-miterlimit="1.45">
      <text x="-270.0971" xml:space="preserve" y="519.0937" clip-path="url(#clipPath11)" stroke="none">&lt;script src=""&gt;</text>
    </g>
    <g fill="rgb(204,153,255)" text-rendering="geometricPrecision" shape-rendering="geometricPrecision" transform="matrix(1,0,0,1,312,42)" stroke="rgb(204,153,255)">
      <rect x="37" width="144" height="26" y="534" clip-path="url(#clipPath2)" stroke="none"/>
      <rect x="36" y="533" clip-path="url(#clipPath2)" fill="rgb(255,218,255)" width="1" height="28" stroke="none"/>
      <rect x="37" y="533" clip-path="url(#clipPath2)" fill="rgb(255,218,255)" width="144" height="1" stroke="none"/>
      <rect x="37" y="560" clip-path="url(#clipPath2)" fill="rgb(142,107,178)" width="145" height="1" stroke="none"/>
      <rect x="181" y="533" clip-path="url(#clipPath2)" fill="rgb(142,107,178)" width="1" height="27" stroke="none"/>
    </g>
    <g font-size="13px" stroke-linecap="butt" transform="matrix(1,0,0,1,312,42)" text-rendering="geometricPrecision" font-family="sans-serif" shape-rendering="geometricPrecision" font-weight="bold" stroke-miterlimit="1.45">
      <text x="91.2241" xml:space="preserve" y="551.0937" clip-path="url(#clipPath12)" stroke="none">*.html</text>
    </g>
    <g fill="rgb(204,153,255)" text-rendering="geometricPrecision" shape-rendering="geometricPrecision" transform="matrix(1,0,0,1,312,42)" stroke="rgb(204,153,255)">
      <rect x="37" width="144" height="26" y="625" clip-path="url(#clipPath2)" stroke="none"/>
      <rect x="36" y="624" clip-path="url(#clipPath2)" fill="rgb(255,218,255)" width="1" height="28" stroke="none"/>
      <rect x="37" y="624" clip-path="url(#clipPath2)" fill="rgb(255,218,255)" width="144" height="1" stroke="none"/>
      <rect x="37" y="651" clip-path="url(#clipPath2)" fill="rgb(142,107,178)" width="145" height="1" stroke="none"/>
      <rect x="181" y="624" clip-path="url(#clipPath2)" fill="rgb(142,107,178)" width="1" height="27" stroke="none"/>
    </g>
    <g font-size="13px" stroke-linecap="butt" transform="matrix(1,0,0,1,312,42)" text-rendering="geometricPrecision" font-family="sans-serif" shape-rendering="geometricPrecision" font-weight="bold" stroke-miterlimit="1.45">
      <text x="91.2241" xml:space="preserve" y="642.0937" clip-path="url(#clipPath13)" stroke="none">*.html</text>
    </g>
    <g fill="rgb(204,153,255)" text-rendering="geometricPrecision" shape-rendering="geometricPrecision" transform="matrix(1,0,0,1,312,42)" stroke="rgb(204,153,255)">
      <rect x="37" width="144" height="26" y="502" clip-path="url(#clipPath2)" stroke="none"/>
      <rect x="36" y="501" clip-path="url(#clipPath2)" fill="rgb(255,218,255)" width="1" height="28" stroke="none"/>
      <rect x="37" y="501" clip-path="url(#clipPath2)" fill="rgb(255,218,255)" width="144" height="1" stroke="none"/>
      <rect x="37" y="528" clip-path="url(#clipPath2)" fill="rgb(142,107,178)" width="145" height="1" stroke="none"/>
      <rect x="181" y="501" clip-path="url(#clipPath2)" fill="rgb(142,107,178)" width="1" height="27" stroke="none"/>
    </g>
    <g font-size="13px" stroke-linecap="butt" transform="matrix(1,0,0,1,312,42)" text-rendering="geometricPrecision" font-family="sans-serif" shape-rendering="geometricPrecision" font-weight="bold" stroke-miterlimit="1.45">
      <text x="66.9983" xml:space="preserve" y="519.0937" clip-path="url(#clipPath14)" stroke="none">_assets/js/**/*</text>
    </g>
    <g fill="rgb(255,204,0)" text-rendering="geometricPrecision" shape-rendering="geometricPrecision" transform="matrix(1,0,0,1,312,42)" stroke="rgb(255,204,0)">
      <rect x="-254" width="98" height="26" y="591" clip-path="url(#clipPath2)" stroke="none"/>
      <rect x="-255" y="590" clip-path="url(#clipPath2)" fill="yellow" width="1" height="28" stroke="none"/>
      <rect x="-254" y="590" clip-path="url(#clipPath2)" fill="yellow" width="98" height="1" stroke="none"/>
      <rect x="-254" y="617" clip-path="url(#clipPath2)" fill="rgb(178,142,0)" width="99" height="1" stroke="none"/>
      <rect x="-156" y="590" clip-path="url(#clipPath2)" fill="rgb(178,142,0)" width="1" height="27" stroke="none"/>
    </g>
    <g font-size="13px" stroke-linecap="butt" transform="matrix(1,0,0,1,312,42)" text-rendering="geometricPrecision" font-family="sans-serif" shape-rendering="geometricPrecision" font-weight="bold" stroke-miterlimit="1.45">
      <text x="-222.345" xml:space="preserve" y="608.0698" clip-path="url(#clipPath15)" stroke="none">Class</text>
    </g>
    <g text-rendering="geometricPrecision" stroke-miterlimit="1.45" stroke-dasharray="6,2" shape-rendering="geometricPrecision" transform="matrix(1,0,0,1,312,42)" stroke-linecap="butt">
      <path fill="none" d="M-57.5 562.0659 L-57.5 576.011" clip-path="url(#clipPath2)"/>
      <path fill="white" d="M-57.5 591.011 L-51.5 575.011 L-63.5 575.011 Z" clip-path="url(#clipPath2)" stroke="none"/>
      <path fill="none" stroke-dasharray="none" d="M-57.5 591.011 L-51.5 575.011 L-63.5 575.011 Z" clip-path="url(#clipPath2)"/>
      <path fill="none" stroke-dasharray="none" d="M-150.1441 522.303 L-121.4181 525.1621" clip-path="url(#clipPath2)"/>
      <path stroke-dasharray="none" d="M-113.4574 525.9544 L-124.9032 519.7905 L-122.4132 525.063 L-125.8936 529.7414 Z" clip-path="url(#clipPath2)" stroke="none"/>
      <path fill="none" stroke-dasharray="none" d="M-1.5131 536.7271 L28.2006 539.4886" clip-path="url(#clipPath2)"/>
      <path stroke-dasharray="none" d="M36.1663 540.2289 L24.6805 534.1399 L27.2049 539.3961 L23.7551 544.097 Z" clip-path="url(#clipPath2)" stroke="none"/>
      <path fill="none" stroke-dasharray="none" d="M77.968 561.0108 L5.7974 593.2491" clip-path="url(#clipPath2)"/>
      <path stroke-dasharray="none" d="M-1.507 596.512 L11.4888 596.183 L6.7104 592.8413 L7.4103 587.0525 Z" clip-path="url(#clipPath2)" stroke="none"/>
      <path fill="none" stroke-dasharray="none" d="M-1.5131 627.0628 L28.2052 630.0029" clip-path="url(#clipPath2)"/>
      <path stroke-dasharray="none" d="M36.1663 630.7905 L24.7169 624.6334 L27.21 629.9044 L23.7323 634.5847 Z" clip-path="url(#clipPath2)" stroke="none"/>
      <path fill="none" stroke-dasharray="none" d="M-1.5131 525.9849 L28.2052 523.0448" clip-path="url(#clipPath2)"/>
      <path stroke-dasharray="none" d="M36.1663 522.2572 L23.7324 518.4629 L27.21 523.1432 L24.7169 528.4143 Z" clip-path="url(#clipPath2)" stroke="none"/>
    </g>
  </g>
</svg>
